# xmcd
#
# Track frame offsets: 
#        150
#        15535
#        32042
#        46435
#        65915
#        82050
#        99075
#        116675
#        133675
#        149750
#
# Disc length: 2195 seconds
#
# Revision: 2
# Processed by: cddbd v1.5.2PL0 Copyright (c) Steve Scherf et al.
# Submitted via: ExactAudioCopy v0.99pb3
#
DISCID=8f08910a
DTITLE=Oscar G Y Grupo Sol - Quiereme
DYEAR=1992
DGENRE=Tejano
TTITLE0=Tu, Solamente Tu
TTITLE1=Hace Un Año
TTITLE2=Con Ella
TTITLE3=Quiereme
TTITLE4=Todo Tu Amor
TTITLE5=Cuando Tu Me Besas
TTITLE6=Ya No Te Puedo Amar
TTITLE7=No Me Quieres
TTITLE8=Sueños Tontos
TTITLE9=Una Noche De Amor
EXTD=
EXTT0=
EXTT1=
EXTT2=
EXTT3=
EXTT4=
EXTT5=
EXTT6=
EXTT7=
EXTT8=
EXTT9=
PLAYORDER=
